<svg aria-hidden="true" style="position: absolute; width: 0; height: 0; overflow: hidden;" version="1.1" xmlns="http://www.w3.org/2000/svg" xmlns:xlink="http://www.w3.org/1999/xlink">
<defs>
<symbol id="icon-search" viewBox="0 0 31 32">
<path d="M30.221 29.359l-7.085-7.087h-0.077c1.931-2.265 3.105-5.226 3.105-8.462 0-7.225-5.857-13.082-13.082-13.082s-13.082 5.857-13.082 13.082c0 7.225 5.857 13.082 13.082 13.082 3.235 0 6.196-1.174 8.48-3.12l-0.018 0.015v0.076l7.087 7.087c0.198 0.199 0.471 0.322 0.774 0.322s0.576-0.123 0.774-0.322l0-0c0.226-0.201 0.367-0.492 0.367-0.816 0-0.303-0.124-0.577-0.323-0.775l-0-0zM13.095 24.681c-0.037 0-0.082 0.001-0.126 0.001-6.021 0-10.902-4.881-10.902-10.902s4.881-10.902 10.902-10.902c0.044 0 0.088 0 0.133 0.001l-0.007-0c6.021 0 10.902 4.881 10.902 10.902s-4.881 10.902-10.902 10.902v0z"></path>
</symbol>
<symbol id="icon-night" viewBox="0 0 32 32">
<path d="M16.182 0.799c0.311 0.535 0.285 1.203-0.067 1.713-1.063 1.525-1.699 3.417-1.699 5.458 0 5.31 4.305 9.615 9.615 9.615 2.041 0 3.933-0.636 5.489-1.72l-0.031 0.021c0.254-0.177 0.569-0.283 0.909-0.283 0.885 0 1.603 0.718 1.603 1.603 0 0.047-0.002 0.094-0.006 0.14l0-0.006c-0.692 8.212-7.578 14.66-15.968 14.66-8.851 0-16.026-7.175-16.026-16.026 0-8.391 6.448-15.274 14.662-15.968 0.617-0.052 1.209 0.256 1.52 0.793zM11.898 3.833c-5.098 1.774-8.691 6.538-8.692 12.141v0c0 7.080 5.74 12.82 12.82 12.82v0c5.636 0 10.423-3.636 12.141-8.692-1.233 0.434-2.654 0.685-4.134 0.685-7.081 0-12.82-5.74-12.82-12.82 0-1.48 0.251-2.902 0.712-4.225l-0.027 0.090z"></path>
</symbol>
<symbol id="icon-add" viewBox="0 0 31 32">
<path d="M13.44 29.302c0.001 1.059 0.861 1.917 1.92 1.917 0 0 0 0 0 0v0c0 0 0 0 0 0 1.059 0 1.919-0.858 1.92-1.917v-11.511h11.52c1.060 0 1.919-0.859 1.92-1.919v-0c-0.001-1.060-0.86-1.919-1.92-1.919h-11.52v-11.511c-0.001-1.059-0.86-1.917-1.92-1.917 0 0 0 0 0 0v0c0 0 0 0 0 0-1.059 0-1.919 0.858-1.92 1.917v11.511h-11.52c-1.059 0.002-1.917 0.861-1.917 1.92 0 0.529 0.214 1.008 0.56 1.356l-0-0c0.347 0.347 0.827 0.562 1.357 0.562h11.52z"></path>
</symbol>
<symbol id="icon-edit" viewBox="0 0 34 32">
<path stroke-width="2.2857" stroke-miterlimit="4" stroke-linecap="round" stroke-linejoin="round" d="M17.538 7.979l-15.253 15.253v7.625h7.625l15.253-15.253M17.538 7.979l5.472-5.472c0.754-0.754 1.129-1.129 1.563-1.271 0.176-0.060 0.379-0.094 0.59-0.094s0.414 0.034 0.603 0.098l-0.013-0.004c0.434 0.142 0.811 0.517 1.563 1.269l3.314 3.317c0.757 0.754 1.134 1.134 1.275 1.568 0.060 0.176 0.094 0.379 0.094 0.59s-0.034 0.414-0.098 0.603l0.004-0.013c-0.142 0.434-0.519 0.811-1.271 1.566h-0.002l-5.47 5.47M17.538 7.979l7.625 7.625"></path>
</symbol>
<symbol id="icon-trash" viewBox="0 0 32 32">
<path stroke-width="1.7778" stroke-miterlimit="4" stroke-linecap="butt" stroke-linejoin="miter" d="M6.887 13.538c-0.005-0.061-0.008-0.133-0.008-0.204 0-1.473 1.194-2.667 2.667-2.667 0 0 0.001 0 0.001 0h12.907c0 0 0 0 0.001 0 1.473 0 2.667 1.194 2.667 2.667 0 0.072-0.003 0.143-0.008 0.214l0.001-0.009-0.924 12c-0.109 1.382-1.257 2.462-2.658 2.462h-11.061c-0 0-0 0-0.001 0-1.401 0-2.549-1.080-2.658-2.453l-0.001-0.009z"></path>
<path stroke-width="1.7778" stroke-miterlimit="4" stroke-linecap="round" stroke-linejoin="miter" d="M26 6.667h-20"></path>
<path stroke-width="1.7778" stroke-miterlimit="4" stroke-linecap="butt" stroke-linejoin="miter" d="M13.333 4c0-0.736 0.597-1.333 1.333-1.333v0h2.667c0.736 0 1.333 0.597 1.333 1.333v0 2.667h-5.333z"></path>
<path stroke-width="1.7778" stroke-miterlimit="4" stroke-linecap="round" stroke-linejoin="miter" d="M18.667 16v6.667M13.333 16v6.667"></path>
</symbol>
<symbol id="icon-light" viewBox="0 0 32 32">
<path d="M17.684 1.684c0-0.93-0.754-1.684-1.684-1.684s-1.684 0.754-1.684 1.684v0 0.844c0 0.93 0.754 1.684 1.684 1.684s1.684-0.754 1.684-1.684v0zM27.313 7.066c0.278-0.3 0.449-0.702 0.449-1.145 0-0.93-0.754-1.684-1.684-1.684-0.443 0-0.846 0.171-1.147 0.451l0.001-0.001-0.598 0.596c-0.295 0.303-0.477 0.718-0.477 1.175 0 0.93 0.754 1.684 1.684 1.684 0.457 0 0.871-0.182 1.174-0.477l-0 0zM7.066 4.688c-0.309-0.332-0.747-0.539-1.235-0.539-0.93 0-1.684 0.754-1.684 1.684 0 0.488 0.207 0.927 0.538 1.234l0.001 0.001 0.596 0.598c0.305 0.305 0.726 0.493 1.191 0.493 0.93 0 1.685-0.754 1.685-1.685 0-0.465-0.189-0.886-0.493-1.191v0zM1.684 14.317c-0.93 0-1.684 0.754-1.684 1.684s0.754 1.684 1.684 1.684h0.844c0.93 0 1.684-0.754 1.684-1.684s-0.754-1.684-1.684-1.684v0zM29.471 14.317c-0.93 0-1.684 0.754-1.684 1.684s0.754 1.684 1.684 1.684h0.845c0.93 0 1.684-0.754 1.684-1.684s-0.754-1.684-1.684-1.684v0zM7.665 26.716c0.325-0.308 0.528-0.742 0.528-1.224 0-0.93-0.754-1.684-1.684-1.684-0.482 0-0.917 0.202-1.224 0.527l-0.001 0.001-0.598 0.598c-0.285 0.301-0.46 0.708-0.46 1.157 0 0.93 0.754 1.684 1.684 1.684 0.448 0 0.856-0.175 1.158-0.461l-0.001 0.001zM26.716 24.335c-0.305-0.305-0.726-0.493-1.191-0.493-0.93 0-1.684 0.754-1.684 1.684 0 0.465 0.188 0.886 0.493 1.191v0l0.596 0.598c0.303 0.295 0.718 0.477 1.175 0.477 0.93 0 1.684-0.754 1.684-1.684 0-0.457-0.182-0.871-0.477-1.174l0 0zM17.683 29.471c0-0.015 0.001-0.032 0.001-0.049 0-0.93-0.754-1.684-1.684-1.684s-1.684 0.754-1.684 1.684c0 0.017 0 0.035 0.001 0.052l-0-0.003v0.845c0 0.93 0.754 1.684 1.684 1.684s1.684-0.754 1.684-1.684v0zM9.265 16c0-3.72 3.016-6.736 6.736-6.736s6.736 3.016 6.736 6.736v0c0 3.72-3.016 6.736-6.736 6.736s-6.736-3.016-6.736-6.736v0zM16 5.897c-5.58 0-10.103 4.523-10.103 10.103s4.523 10.103 10.103 10.103v0c5.58 0 10.103-4.523 10.103-10.103s-4.523-10.103-10.103-10.103v0z"></path>
</symbol>
</defs>
</svg>
