<svg aria-hidden="true" style="position: absolute; width: 0; height: 0; overflow: hidden;" version="1.1" xmlns="http://www.w3.org/2000/svg" xmlns:xlink="http://www.w3.org/1999/xlink">
<defs>
<symbol id="icon-up" viewBox="0 0 32 32">
<path d="M16 20c0.552 0 1-0.448 1-1v0-11.586l4.292 4.294c0.181 0.181 0.431 0.293 0.708 0.293 0.553 0 1.001-0.448 1.001-1.001 0-0.277-0.112-0.527-0.293-0.708v0l-6-6c-0.181-0.181-0.431-0.294-0.708-0.294s-0.527 0.112-0.708 0.294l-6 6c-0.181 0.181-0.293 0.431-0.293 0.708 0 0.553 0.448 1.001 1.001 1.001 0.277 0 0.527-0.112 0.708-0.293v0l4.292-4.294v11.586c0 0.552 0.448 1 1 1v0zM2 25c0-0.552 0.448-1 1-1v0h26c0.552 0 1 0.448 1 1s-0.448 1-1 1v0h-26c-0.552 0-1-0.448-1-1v0z"></path>
</symbol>
<symbol id="icon-sun" viewBox="0 0 32 32">
<path d="M16 24c4.418 0 8-3.582 8-8s-3.582-8-8-8v0c-4.418 0-8 3.582-8 8s3.582 8 8 8v0zM16 0c0.552 0 1 0.448 1 1v0 4c0 0.552-0.448 1-1 1s-1-0.448-1-1v0-4c0-0.552 0.448-1 1-1v0zM16 26c0.552 0 1 0.448 1 1v0 4c0 0.552-0.448 1-1 1s-1-0.448-1-1v0-4c0-0.552 0.448-1 1-1v0zM32 16c0 0.552-0.448 1-1 1v0h-4c-0.552 0-1-0.448-1-1s0.448-1 1-1v0h4c0.552 0 1 0.448 1 1v0zM6 16c0 0.552-0.448 1-1 1v0h-4c-0.552 0-1-0.448-1-1s0.448-1 1-1v0h4c0.552 0 1 0.448 1 1v0zM27.314 4.686c0.181 0.181 0.293 0.431 0.293 0.707s-0.112 0.526-0.293 0.707l-2.828 2.83c-0.181 0.181-0.431 0.293-0.707 0.293-0.553 0-1.001-0.448-1.001-1.001 0-0.277 0.112-0.527 0.294-0.708v0l2.828-2.828c0.181-0.181 0.431-0.293 0.707-0.293s0.526 0.112 0.707 0.293v0zM8.928 23.072c0.181 0.181 0.293 0.431 0.293 0.707s-0.112 0.526-0.293 0.707l-2.828 2.828c-0.18 0.174-0.425 0.281-0.695 0.281-0.552 0-1-0.448-1-1 0-0.27 0.107-0.515 0.281-0.695l2.828-2.828c0.181-0.181 0.431-0.293 0.707-0.293s0.526 0.112 0.707 0.293v0zM27.314 27.314c-0.181 0.181-0.431 0.293-0.707 0.293s-0.526-0.112-0.707-0.293l-2.828-2.828c-0.174-0.18-0.281-0.425-0.281-0.695 0-0.552 0.448-1 1-1 0.27 0 0.515 0.107 0.695 0.281l2.828 2.828c0.181 0.181 0.293 0.431 0.293 0.707s-0.112 0.526-0.293 0.707v0zM8.928 8.93c-0.181 0.181-0.431 0.293-0.707 0.293s-0.526-0.112-0.707-0.293v0l-2.828-2.83c-0.188-0.182-0.305-0.437-0.305-0.719 0-0.552 0.448-1 1-1 0.282 0 0.537 0.117 0.719 0.305l2.828 2.828c0.181 0.181 0.294 0.431 0.294 0.708s-0.112 0.527-0.294 0.708l-0 0z"></path>
</symbol>
<symbol id="icon-moon" viewBox="0 0 32 32">
<path d="M12 0.556c0.217 0.264 0.349 0.605 0.349 0.977 0 0.271-0.070 0.526-0.193 0.747l0.004-0.008c-1.105 1.99-1.756 4.365-1.756 6.891 0 0.010 0 0.020 0 0.030v-0.002c0 8.042 6.556 14.554 14.636 14.554q1.584-0.002 3.066-0.32c0.099-0.022 0.213-0.035 0.331-0.035 0.53 0 1 0.261 1.286 0.662l0.003 0.005c0.172 0.236 0.275 0.533 0.275 0.853 0 0.356-0.127 0.682-0.339 0.935l0.002-0.002c-3.086 3.769-7.74 6.156-12.95 6.156-0.009 0-0.018 0-0.027-0h0.001c-9.22 0-16.688-7.428-16.688-16.58 0-6.888 4.228-12.796 10.248-15.3 0.173-0.076 0.375-0.119 0.587-0.119 0.469 0 0.888 0.215 1.163 0.553l0.002 0.003z"></path>
</symbol>
<symbol id="icon-heart-fill" viewBox="0 0 32 32">
<path d="M16 2.628c8.876-9.124 31.068 6.842 0 27.372-31.068-20.528-8.876-36.496 0-27.372z"></path>
</symbol>
<symbol id="icon-heart" viewBox="0 0 32 32">
<path d="M16 5.496l-1.434-1.474c-3.366-3.46-9.538-2.266-11.766 2.084-1.046 2.046-1.282 5 0.628 8.77 1.84 3.63 5.668 7.978 12.572 12.714 6.904-4.736 10.73-9.084 12.572-12.714 1.91-3.772 1.676-6.724 0.628-8.77-2.228-4.35-8.4-5.546-11.766-2.086zM16 30c-30.666-20.264-9.442-36.080-0.352-27.714q0.18 0.166 0.352 0.342c0.112-0.118 0.227-0.229 0.346-0.335l0.006-0.005c9.088-8.372 30.314 7.446-0.352 27.712z"></path>
</symbol>
<symbol id="icon-trash" viewBox="0 0 32 32">
<path d="M13 2h6c0.552 0 1 0.448 1 1v0 2h-8v-2c0-0.552 0.448-1 1-1v0zM22 5v-2c0-1.657-1.343-3-3-3v0h-6c-1.657 0-3 1.343-3 3v0 2h-7c-0.552 0-1 0.448-1 1s0.448 1 1 1v0h1.076l1.706 21.32c0.171 2.067 1.891 3.68 3.987 3.68 0 0 0.001 0 0.001 0h12.46c0 0 0.001 0 0.001 0 2.096 0 3.816-1.613 3.986-3.666l0.001-0.014 1.706-21.32h1.076c0.552 0 1-0.448 1-1s-0.448-1-1-1v0zM25.916 7l-1.692 21.16c-0.085 1.034-0.945 1.84-1.994 1.84-0 0-0 0-0 0h-12.46c-0 0-0 0-0 0-1.048 0-1.908-0.806-1.993-1.833l-0-0.007-1.692-21.16zM10.942 9c0.017-0.001 0.037-0.002 0.058-0.002 0.532 0 0.967 0.415 0.998 0.939l0 0.003 1 17c0.001 0.012 0.001 0.026 0.001 0.040 0 0.552-0.448 1-1 1-0.524 0-0.954-0.403-0.997-0.917l-0-0.004-1.002-17c-0.001-0.018-0.002-0.040-0.002-0.062 0-0.532 0.415-0.967 0.939-0.998l0.003-0zM21.058 9c0.527 0.032 0.942 0.466 0.942 0.998 0 0.022-0.001 0.043-0.002 0.065l0-0.003-1 17c-0.022 0.535-0.461 0.96-0.999 0.96-0.552 0-1-0.448-1-1 0-0.028 0.001-0.056 0.003-0.083l-0 0.004 1-17c0.032-0.527 0.467-0.942 0.998-0.942 0.020 0 0.040 0.001 0.060 0.002l-0.003-0zM16 9c0.552 0 1 0.448 1 1v0 17c0 0.552-0.448 1-1 1s-1-0.448-1-1v0-17c0-0.552 0.448-1 1-1v0z"></path>
</symbol>
<symbol id="icon-pencil" viewBox="0 0 32 32">
<path d="M24.292 0.292c0.181-0.181 0.431-0.294 0.708-0.294s0.527 0.112 0.708 0.294l6 6c0.181 0.181 0.294 0.431 0.294 0.708s-0.112 0.527-0.294 0.708l-20 20c-0.093 0.093-0.205 0.167-0.329 0.218l-0.007 0.002-10 4c-0.11 0.045-0.238 0.072-0.372 0.072-0.552 0-1-0.448-1-1 0-0.134 0.026-0.262 0.074-0.378l-0.002 0.007 4-10c0.053-0.131 0.127-0.243 0.22-0.336l-0 0zM22.414 5l4.586 4.586 2.586-2.586-4.586-4.586zM25.586 11l-4.586-4.586-13 13v0.586h1c0.552 0 1 0.448 1 1v0 1h1c0.552 0 1 0.448 1 1v0 1h0.586zM6.064 21.35l-0.212 0.212-3.056 7.642 7.642-3.056 0.212-0.212c-0.383-0.146-0.65-0.51-0.65-0.936v-1h-1c-0.552 0-1-0.448-1-1v0-1h-1c-0.426-0-0.79-0.267-0.934-0.643l-0.002-0.007z"></path>
</symbol>
</defs>
</svg>
